<?xml version="1.0" encoding="UTF-8"?>
<svg id="Layer_2" data-name="Layer 2" xmlns="http://www.w3.org/2000/svg" viewBox="0 0 421.93 517.13">
  <defs>
    <style>
      .cls-1 {
        fill: #fff;
      }
    </style>
  </defs>
  <g id="Layer_1-2" data-name="Layer 1">
    <g id="county">
      <path d="M214.1,21.63c18.86,18.46,37.06,37.62,56.03,55.97,1.16,1.13,2.12,3.51,2.97,4.03,4.34,2.64,20.03-3.98,13.59,7.6l-7.6.9c-.29,5.21,2.62,9.55-1.43,14.09-1.36,1.52-3.57,1.71-3.57,1.91v107l83.98,1.52,44.77,43.32c2.8.58,5.59-1.58,7.76,1.15l.36,23.38-4.87,1.64v226c6.26-1.87,19.22-2.53,15,7H1.6c-1.52,0-2.44-5.35-.51-6.51,4.32-1.85,9.57-2.34,14.01-.49v-226c-1.95-.02-5.1.66-5.86-1.64l.77-23.96c2.35-2.98,7-.64,9.65-.85,4.53-.37,37.71-38,44.47-43.03,11.84-1.11,23.64-1.36,35.52-1.56,4.52-.07,9.35,0,13.92,0,11.21,0,22.84-.28,33.54,1.04v-106.5c0-.41-3.33-2.96-4.01-3.99-3.16-4.85-1.55-8.28-.99-13.5l-7.86-1.15.29-5.92,13.12-1.88,58.45-58.55V2.63c0-.5,2.51-2.61,3.55-2.55,1.28-.53,4.45,1.82,4.45,2.55v19ZM271.1,90.13h-122v7h122v-7ZM266.1,105.13h-111v107.5c1.32,2.16,3.14.48,5.44.45,18.1-.27,36.21-.02,54.01,1.1l51.55,29.95V105.13ZM122.6,275.13h178.5l-90.5-53.71-88,53.71ZM119.1,266.13H16.1l.14,8.36,2.36,1.64,85.45-.56,15.06-9.44ZM403.1,266.13h-100l14.5,10h85.5v-10ZM102.1,284.13H23.1v161h84.5l6.51-8.49.48-114.5c-6.01-2.79-4.38-8.5-4.48-14.01-2.74-.18-6.11.97-8.01-1.5v-22.5ZM313.1,284.13H110.1v16h201.5l1.5-1.5v-14.5ZM398.1,284.13h-77v20.5c0,4.07-7.09,3.82-10,3.5-.24,3.2.59,7-.42,10.08-.85,2.57-3.25,2.12-3.65,4.4.31,33.01-.6,66.13,1.12,98.99.17,3.21-.72,14.79.17,16.34.68,1.17,6.44,2.47,4.78,7.21h85v-161ZM140.1,308.13h-22v5h22v-5ZM194.1,308.13h-20.5l-1.37,1.63-.13,3.37h22v-5ZM249.1,308.13h-22v5h22v-5ZM303.1,308.13h-20.5c-1.88,0-1.88,5,0,5h20.5v-5ZM122.1,322.63v115.5h15l-1-117.01c-2.71.46-13.15-1.26-14,1.51ZM190.1,321.13h-14l-1,117h16l-1-117ZM245.1,321.13h-14l-1,117h16l-1-117ZM285.1,438.13h15l-.99-117.01h-12.43s-1.58,117.01-1.58,117.01ZM142.1,446.13h-26v5h26v-5ZM195.1,446.13h-25v5h25v-5ZM252.1,446.13h-26c1,1.93,1,3.07,0,5h26v-5ZM306.1,446.13h-27v5h28l-1-5ZM103.1,452.13H23.1v57h79v-55.5c0-.21,1.5-1.14,1-1.5ZM320.1,509.13h75.5c.25,0,.59.81,1,.78l1.5-1.28v-55l-1.5-1.5h-75c-2.27,1.39-.5,2.15-.5,2.5v53c0,.21-1.5,1.14-1,1.5ZM142.1,460.13h-32v50c.73.27,1.2-1,1.5-1h18c.3,0,.77,1.27,1.5,1v-23.5c0-.28,1.03-2.33,1.68-2.54,2.81-.66,7.14,1.47,9.32-1.46v-22.5ZM272.1,460.13h-123v8h123v-8ZM313.1,460.13h-34v24l10.31-.04c.66.2,1.69,2.26,1.69,2.54v22.5h22v-49ZM271.1,476.13h-122v8h121.5c2.23-1.77.32-5.39.5-8ZM283.1,491.13h-144v18h141.5c.25,0,.59.81,1,.78l1.5-1.28v-17.5Z"/>
      <path class="cls-1" d="M102.1,284.13v22.5c1.89,2.47,5.26,1.32,8.01,1.5.1,5.51-1.53,11.22,4.48,14.01l-.48,114.5-6.51,8.49H23.1v-161h79ZM44.6,329.13l-1.5,1.5v66l1.5,1.5h43l1.5-1.5v-66l-1.5-1.5h-43Z"/>
      <path class="cls-1" d="M398.1,284.13v161h-85c1.66-4.74-4.11-6.04-4.78-7.21-.9-1.55,0-13.12-.17-16.34-1.73-32.86-.81-65.98-1.12-98.99.4-2.28,2.8-1.82,3.65-4.4,1.02-3.08.19-6.87.42-10.08,2.92.32,10,.58,10-3.5v-20.5h77ZM334.6,329.13l-1.5,1.5v66l1.5,1.5h42l1.5-1.5v-66l-1.5-1.5h-42Z"/>
      <path class="cls-1" d="M266.1,105.13v139l-51.55-29.95c-17.8-1.12-35.91-1.37-54.01-1.1-2.3.03-4.12,1.71-5.44-.45v-107.5h111ZM208.93,115.36c-52.95,1.55-50.6,85.33,2.68,83.83,52.83-1.49,52.1-85.44-2.68-83.83Z"/>
      <polygon class="cls-1" points="122.6 275.13 210.6 221.42 301.1 275.13 122.6 275.13"/>
      <path class="cls-1" d="M103.1,452.13c.5.36-1,1.29-1,1.5v55.5H23.1v-57h80Z"/>
      <path class="cls-1" d="M320.1,509.13c-.5-.36,1-1.29,1-1.5v-53c0-.35-1.77-1.11.5-2.5h75l1.5,1.5v55l-1.5,1.28c-.41.03-.75-.78-1-.78h-75.5Z"/>
      <polygon class="cls-1" points="313.1 284.13 313.1 298.63 311.6 300.13 110.1 300.13 110.1 284.13 313.1 284.13"/>
      <path class="cls-1" d="M283.1,491.13v17.5l-1.5,1.28c-.41.03-.75-.78-1-.78h-141.5v-18h144Z"/>
      <polygon class="cls-1" points="190.1 321.13 191.1 438.13 175.1 438.13 176.1 321.13 190.1 321.13"/>
      <polygon class="cls-1" points="245.1 321.13 246.1 438.13 230.1 438.13 231.1 321.13 245.1 321.13"/>
      <path class="cls-1" d="M122.1,322.63c.85-2.76,11.29-1.04,14-1.51l1,117.01h-15v-115.5Z"/>
      <polygon class="cls-1" points="285.1 438.13 286.68 321.11 299.11 321.12 300.1 438.13 285.1 438.13"/>
      <path class="cls-1" d="M313.1,460.13v49h-22v-22.5c0-.28-1.03-2.33-1.69-2.54l-10.31.04v-24h34Z"/>
      <path class="cls-1" d="M142.1,460.13v22.5c-2.18,2.94-6.51.81-9.32,1.46-.66.21-1.68,2.26-1.68,2.54v23.5c-.73.27-1.2-1-1.5-1h-18c-.3,0-.77,1.27-1.5,1v-50h32Z"/>
      <rect class="cls-1" x="149.1" y="460.13" width="123" height="8"/>
      <path class="cls-1" d="M271.1,476.13c-.18,2.61,1.73,6.23-.5,8h-121.5v-8h122Z"/>
      <polygon class="cls-1" points="119.1 266.13 104.05 275.57 18.6 276.13 16.24 274.49 16.1 266.13 119.1 266.13"/>
      <polygon class="cls-1" points="403.1 266.13 403.1 276.13 317.6 276.13 303.1 266.13 403.1 266.13"/>
      <rect class="cls-1" x="149.1" y="90.13" width="122" height="7"/>
      <polygon class="cls-1" points="306.1 446.13 307.1 451.13 279.1 451.13 279.1 446.13 306.1 446.13"/>
      <rect class="cls-1" x="116.1" y="446.13" width="26" height="5"/>
      <path class="cls-1" d="M252.1,446.13v5h-26c1-1.93,1-3.07,0-5h26Z"/>
      <rect class="cls-1" x="170.1" y="446.13" width="25" height="5"/>
      <rect class="cls-1" x="227.1" y="308.13" width="22" height="5"/>
      <rect class="cls-1" x="118.1" y="308.13" width="22" height="5"/>
      <polygon class="cls-1" points="194.1 308.13 194.1 313.13 172.1 313.13 172.24 309.76 173.6 308.13 194.1 308.13"/>
      <path class="cls-1" d="M303.1,308.13v5h-20.5c-1.88,0-1.88-5,0-5h20.5Z"/>
      <path d="M44.6,329.13h43l1.5,1.5v66l-1.5,1.5h-43l-1.5-1.5v-66l1.5-1.5ZM63.11,337.12h-13.01s0,10.01,0,10.01c4.32.28,8.96-.89,13,.99v-11ZM82.11,337.12h-12.01v10.01h12.01v-10.01ZM82.1,354.13h-32c.94,3.53,1.74,6.99.24,10.54l1.26,1.46h30.5v-12ZM63.1,373.13h-13c2.01,2.75-.03,4.99-.02,7.5.02,2.92,2.13,5.67,0,8.99l13.02.51v-17ZM82.1,373.13h-12c1.89,5.85-.65,11,0,17h12v-17Z"/>
      <path d="M334.6,329.13h42l1.5,1.5v66l-1.5,1.5h-42l-1.5-1.5v-66l1.5-1.5ZM351.11,344.13v-8c-3.43,1.74-7.32.82-11,1.01l.99,7h10.01ZM371.11,337.12h-13.01v7.01h13.01v-7.01ZM371.1,351.13h-30l-.76,9.54,1.26,1.46h28c2.85-2.64,1.05-7.43,1.5-11ZM351.11,368.12h-10.01v8.01h10.01v-8.01ZM371.1,368.13h-13s0,8,0,8h13c-1.75-2.87-.71-5.06,0-8ZM371.1,383.13h-31l1,7h30v-7Z"/>
      <path d="M208.93,115.36c54.77-1.61,55.5,82.34,2.68,83.83-53.28,1.5-55.63-82.27-2.68-83.83ZM203.84,124.37c-7.75,1.21-16.48,7.85-20.56,14.44-19.37,31.23,16.67,66.41,45.76,45.76s11.01-65.87-25.2-60.2Z"/>
      <path class="cls-1" d="M82.1,354.13v12h-30.5l-1.26-1.46c1.51-3.55.7-7.02-.24-10.54h32Z"/>
      <path class="cls-1" d="M63.1,373.13v17l-13.02-.51c2.13-3.32.02-6.06,0-8.99-.01-2.51,2.03-4.75.02-7.49h13Z"/>
      <path class="cls-1" d="M82.1,373.13v17h-12c-.64-6,1.9-11.15,0-16.99h12Z"/>
      <path class="cls-1" d="M63.11,337.12v11c-4.05-1.89-8.69-.71-13.01-.99v-10.01s13.01,0,13.01,0Z"/>
      <rect class="cls-1" x="70.1" y="337.12" width="12.01" height="10.01"/>
      <path class="cls-1" d="M371.1,351.13c-.45,3.57,1.35,8.36-1.5,11h-28l-1.26-1.46.76-9.54h30Z"/>
      <polygon class="cls-1" points="371.1 383.13 371.1 390.13 341.1 390.13 340.1 383.13 371.1 383.13"/>
      <path class="cls-1" d="M371.1,368.13c-.71,2.94-1.75,5.13,0,7.98h-13s0-8,0-8h13Z"/>
      <rect class="cls-1" x="358.1" y="337.12" width="13.01" height="7.01"/>
      <rect class="cls-1" x="341.1" y="368.12" width="10.01" height="8.01"/>
      <path class="cls-1" d="M351.11,344.13h-10.01s-.99-7-.99-7c3.69-.19,7.57.73,10.99-1.01v8Z"/>
      <path class="cls-1" d="M203.84,124.37c36.21-5.67,53.12,40.38,25.2,60.2s-65.13-14.53-45.76-45.76c4.09-6.59,12.82-13.22,20.56-14.44ZM207.82,127.3c-5.24,1.57-1.94,10.43,4.29,7.33,4.23-2.11,1.64-9.11-4.29-7.33ZM228.05,151.04c.78-1.12-2.5-6.23-4.43-5.93l-14.17,8.92-1.4-.33c-3.22-11.26-9.62,1.29-7.81,6.76.83,2.52,7.44,3.95,9.93,3.28,2.02-.54,2.17-2.48,3.55-3.44,4.63-3.2,9.33-6.65,14.32-9.26ZM185.81,154.24c-5.67,1.46-4.1,10.99,2.63,8.75,4.82-1.6,1.75-9.88-2.63-8.75ZM237.85,155.38c-3.14-3.15-8.99.92-7.28,4.72,3.16,6.99,11.99,0,7.28-4.72ZM208.77,179.26c-4.57,1.54-2.19,10.62,4.33,7.37,4.39-2.19,1.31-9.28-4.33-7.37Z"/>
      <path d="M228.05,151.04c-4.99,2.6-9.69,6.05-14.32,9.26-1.38.96-1.53,2.9-3.55,3.44-2.49.67-9.09-.76-9.93-3.28-1.81-5.48,4.59-18.02,7.81-6.76l1.4.33,14.17-8.92c1.92-.3,5.2,4.81,4.43,5.93Z"/>
      <path d="M185.81,154.24c4.38-1.13,7.44,7.14,2.63,8.75-6.72,2.24-8.29-7.28-2.63-8.75Z"/>
      <path d="M207.82,127.3c5.93-1.78,8.52,5.22,4.29,7.33-6.22,3.1-9.52-5.76-4.29-7.33Z"/>
      <path d="M237.85,155.38c4.71,4.72-4.12,11.71-7.28,4.72-1.72-3.8,4.14-7.87,7.28-4.72Z"/>
      <path d="M208.77,179.26c5.64-1.91,8.72,5.18,4.33,7.37-6.52,3.25-8.9-5.83-4.33-7.37Z"/>
    </g>
  </g>
</svg>