<?xml version="1.0" encoding="UTF-8"?>
<svg id="Layer_2" data-name="Layer 2" xmlns="http://www.w3.org/2000/svg" viewBox="0 0 424.74 514.06">
  <defs>
    <style>
      .cls-1 {
        fill: #fff;
      }
    </style>
  </defs>
  <g id="Layer_1-2" data-name="Layer 1">
    <g id="fed">
      <path d="M218.11,20.98l-.53,64.48c10,2.79,16.5,10.95,16.11,21.57,32.18,7.05,55.93,37.66,59,70,3.28.39,9.54-1.37,10.75,2.75.74,2.5.53,19.73-.46,22.07-1.18,2.79-5.92,2.18-8.34,2.23v54h38.5l1.5,2.5.24,25.04,1.26,1.46h72l1.5,1.5v27l-7.01,2.51v142.5c.11,3.98,5.89,1.19,6.88,4.13l.29,40.71,1.47,1.58c3.98-.97,13.46-2.68,13.47,3.57,0,1.09-.61,3.5-1.6,3.5H2.14c-.48,0-2.14-2.58-2.14-3.5-.03-5.41,13.51-5.45,17.16-3.55l1.44-1.44c-.81-1.19-1.02-2.54-1.02-3.95,0-9.64-1.24-25.2.13-34,.96-6.2,5.77-3.9,5.99-5.13v-143.78s-6.06-3.15-6.06-3.15v-27l1.5-1.5h72c4.85-8.41-3.83-20.94,3-29h38.5c-2.57-17.73.09-36.24-1.03-53.97-2.35.04-6.91-.04-7.8-2.7-.49-1.47-.49-20.2,0-21.67,1.4-4.19,9.98-1.51,11.4-3.6,3.09-32.01,25.99-60.95,57.26-69.25.52-11.24,6.32-18.14,16.71-21.76l.05-70.6c-12.97-13.54,12.9-21.59,11.51-5.94-.31,3.54-4.8,5.65-3.1,10.48M224.64,104.06c-1.46-13.93-22.89-13.21-22.99,1,.36.5,1.28-1,1.49-1h21.5ZM283.64,177.06c-1.16-21.06-14.12-41.49-31.47-53.03-45.7-30.37-102.8.66-108.53,53.03h140ZM295.64,185.06h-164v10h164v-10ZM286.64,204.06h-147c-.37,1.08,1,2.19,1,2.5v51.5h15v-43.5c0-2.52,6.49-7.44,9.52-7.57,3.25-.14,9.48,3.61,9.48,6.57v45.5l14.04-7.67c1.63-8.94-2.53-32.15.48-39.31.91-2.18,5.47-5.08,7.98-5.08,2.35,0,8.5,4.12,8.5,5.55v29.5c5.17-3.23,9.03-4.5,14,0v-27.5c0-.29,2.46-4.39,3.05-4.95,3.75-3.49,10.81-3.34,13.97.92,4.68,6.31.59,32.05,1.94,40.85l14.04,7.67v-44.5c0-2.41,6.48-7.56,9.5-7.55,3.61,0,9.5,5.29,9.5,8.55v42.5h15v-54ZM316.64,304.06c-5.45-4.34-12.21-7.8-18.33-11.17-28.15-15.53-56.68-30.45-85-45.65-30.21,16.97-60.98,32.96-91.35,49.65-3.69,2.03-8.36,4.29-11.33,7.17h206ZM99.64,267.56v19.5h24.5c1.91,0,29.51-16.1,33.52-18.48,1.09-.65,2.74-1.03,2.97-2.52l-61,1.49ZM327.64,267.06l-58.99-1c-.56,2.68.71,1.72,1.97,2.48,4,2.41,31.61,18.52,33.52,18.52h23.5v-20ZM109.64,294.06H25.64v16h70c-1.96-11.01,8.28-10.18,14-16ZM402.64,310.06v-14.5l-1.5-1.5h-81.5c5.68,5.72,14.22,5.48,12,16h71ZM323.64,326.06l-.15-13.4c-.28-1.17-2.45-1.6-3.35-1.6H105.14l-1.26,1.46.76,13.54h219ZM94.14,318.06H31.64v143.5l1.5,1.5h67c3.27-3.24.45-9.24,1.69-13.3.93-3.05,4.55-2.44,4.81-2.7.28-.29-1.02-3.02-.92-4.38,2.01-29.5,1.61-60.44,1.86-90.17.01-1.65.94-3.3.94-4s-1.81-.71-2.31-1.46c-2.64-3.96-1.3-8.45-1.56-12.98l-8.09-1.66-.93-15.33c-.36-.51-1.21.96-1.49,1ZM326.14,463.06h68l1.5-1.5v-143c-1.39-2.27-2.15-.5-2.5-.5h-61.5c-.37,8.16,2.94,18.15-9.01,16-.26,3.29.52,7.09-.2,10.29-.76,3.38-3.53,2.97-3.87,5.18l2.07,96.05c.06,2.42,3.26,2.4,3.86,4.14.98,2.84-1.3,12.43,1.65,13.35ZM111.64,340.06h23v-6c-6.64,1.64-15.33,1.65-21.99,0l-1.01,6.01ZM195.64,340.06l-1.46-5.75-20.9.89-1.64,4.86h24ZM232.64,340.06h23v-6.01c-7.7-.39-15.25,1.74-23.01,1v5.01ZM291.64,340.06h23v-6c-6.84,2.41-14.53.31-21.55.36l-1.45,5.64ZM130.64,348.06h-15l-2,99h19l-2-99ZM191.64,348.06h-16l-2,99h19l-1-99ZM251.64,348.06h-15l-3,99h20l-2-99ZM312.64,447.06l-1.3-97.53c-.53-2.81-12.06-.95-14.71-1.48l-3,99.01h19ZM136.64,455.06h-27v8h27v-8ZM196.64,455.06h-27v8h25.5l1.34-1.65.16-6.35ZM257.64,455.06h-27v8h27v-8ZM317.64,455.06h-28l.05,6.95c9.18,1.82,18.64.8,27.95,1.05v-8.01ZM280.64,470.06h-135v9c7.36-2.62,15.29-.12,22.46.04,30.14.7,61.01.57,91.04.03,7.13-.13,14.55-1.93,21.49-.07v-9ZM95.64,471.06H25.64v35h70v-35ZM137.64,471.06h-33v35h10.01s.93-11.56.93-11.56l12.07-.43c.37-9.43-3.37-18.13,10-16v-7ZM323.64,471.06h-36v7.01c3.13.36,9.89-1.34,11.5,1.99l.49,14.01,11.57.93.43,11.07h12.01v-35.01ZM401.64,471.06h-70c-.27.73,1,1.2,1,1.5v32c0,.36-1.63.81-.51,1.5l1.01.98c.38-.04.69-.98,1-.98h66c.3,0,.77,1.27,1.5,1v-36ZM292.64,486.06h-156.5l-1.19,6.53,1.19,1.47h156.5v-8ZM303.64,502.06H122.64v4h181v-4Z"/>
      <path class="cls-1" d="M326.14,463.06c-2.96-.91-.68-10.51-1.65-13.35-.6-1.74-3.8-1.72-3.86-4.14l-2.07-96.05c.34-2.21,3.11-1.8,3.87-5.18.72-3.2-.06-7,.2-10.29,11.95,2.16,8.63-7.84,9.01-16h61.5c.35,0,1.11-1.77,2.5.5v143l-1.5,1.5h-68ZM372.64,352.06h-24v33h24v-33ZM372.64,411.06h-24v34h24v-34Z"/>
      <path class="cls-1" d="M94.14,318.06c.28-.04,1.13-1.5,1.49-1l.93,15.33,8.09,1.66c.26,4.53-1.07,9.02,1.56,12.98.5.75,2.3.79,2.31,1.46s-.92,2.34-.94,4c-.24,29.74.15,60.67-1.86,90.17-.09,1.36,1.21,4.09.92,4.38-.26.27-3.88-.35-4.81,2.7-1.24,4.06,1.58,10.07-1.69,13.3H33.14l-1.5-1.5v-143.5h62.5ZM78.64,352.06h-24v31.5c7.1,2.95,16.26-1.6,24,1.5v-33ZM78.64,411.06h-24v34h24v-34Z"/>
      <path class="cls-1" d="M283.64,177.06h-140c5.73-52.37,62.83-83.4,108.53-53.03,17.36,11.54,30.31,31.97,31.47,53.03Z"/>
      <path class="cls-1" d="M316.64,304.06H110.64c2.97-2.89,7.64-5.15,11.33-7.17,30.37-16.69,61.13-32.68,91.35-49.65,28.32,15.2,56.85,30.12,85,45.65,6.12,3.38,12.87,6.84,18.33,11.17Z"/>
      <path class="cls-1" d="M286.64,204.06v54h-15v-42.5c0-3.26-5.89-8.55-9.5-8.55-3.02,0-9.5,5.14-9.5,7.55v44.5l-14.04-7.67c-1.35-8.8,2.74-34.54-1.94-40.85-3.16-4.27-10.23-4.41-13.97-.92-.6.56-3.05,4.66-3.05,4.95v27.5c-4.97-4.5-8.83-3.23-14,0v-29.5c0-1.43-6.15-5.55-8.5-5.55-2.51,0-7.07,2.9-7.98,5.08-3.01,7.16,1.15,30.37-.48,39.31l-14.04,7.67v-45.5c0-2.96-6.23-6.71-9.48-6.57-3.03.13-9.52,5.05-9.52,7.57v43.5h-15v-51.5c0-.31-1.37-1.42-1-2.5h147Z"/>
      <path class="cls-1" d="M323.64,326.06H104.64l-.76-13.54,1.26-1.46h215c.9,0,3.07.43,3.35,1.6l.15,13.4Z"/>
      <rect class="cls-1" x="25.64" y="471.06" width="70" height="35"/>
      <path class="cls-1" d="M401.64,471.06v36c-.73.27-1.2-1-1.5-1h-66c-.31,0-.62.95-1,.98l-1.01-.98c-1.12-.69.51-1.14.51-1.5v-32c0-.3-1.27-.77-1-1.5h70Z"/>
      <polygon class="cls-1" points="191.64 348.06 192.64 447.06 173.64 447.06 175.64 348.06 191.64 348.06"/>
      <polygon class="cls-1" points="251.64 348.06 253.64 447.06 233.64 447.06 236.64 348.06 251.64 348.06"/>
      <polygon class="cls-1" points="130.64 348.06 132.64 447.06 113.64 447.06 115.64 348.06 130.64 348.06"/>
      <path class="cls-1" d="M312.64,447.06h-19l3-99.01c2.65.53,14.18-1.33,14.71,1.48l1.3,97.53Z"/>
      <rect class="cls-1" x="131.64" y="185.06" width="164" height="10"/>
      <polygon class="cls-1" points="292.64 486.06 292.64 494.06 136.14 494.06 134.95 492.59 136.14 486.06 292.64 486.06"/>
      <path class="cls-1" d="M402.64,310.06h-71c2.22-10.52-6.32-10.28-12-16h81.5l1.5,1.5v14.5Z"/>
      <path class="cls-1" d="M109.64,294.06c-5.72,5.82-15.96,4.99-14,16H25.64v-16h84Z"/>
      <path class="cls-1" d="M280.64,470.06v9c-6.95-1.86-14.37-.05-21.5.07-30.03.54-60.9.67-91.04-.03-7.17-.17-15.1-2.67-22.45-.04v-9s134.99,0,134.99,0Z"/>
      <path class="cls-1" d="M99.64,267.56l61-1.49c-.23,1.49-1.88,1.87-2.97,2.52-4.01,2.38-31.61,18.48-33.52,18.48h-24.5v-19.5Z"/>
      <path class="cls-1" d="M327.64,267.06v20h-23.5c-1.91,0-29.52-16.11-33.52-18.52-1.26-.76-2.54.2-1.97-2.48l58.99,1Z"/>
      <path class="cls-1" d="M323.64,471.06v35h-12.01s-.43-11.06-.43-11.06l-11.57-.93-.49-14.01c-1.62-3.33-8.38-1.63-11.51-1.99v-7.01h36Z"/>
      <rect class="cls-1" x="122.64" y="502.06" width="181" height="4"/>
      <path class="cls-1" d="M137.64,471.06v7c-13.36-2.13-9.62,6.57-9.99,16l-12.07.43-.93,11.57h-10.01v-35.01h33Z"/>
      <path class="cls-1" d="M317.64,455.06v8.01c-9.31-.25-18.76.76-27.95-1.05l-.05-6.95h28Z"/>
      <rect class="cls-1" x="230.64" y="455.06" width="27" height="8"/>
      <rect class="cls-1" x="109.64" y="455.06" width="27" height="8"/>
      <polygon class="cls-1" points="196.64 455.06 196.49 461.41 195.14 463.06 169.64 463.06 169.64 455.06 196.64 455.06"/>
      <path class="cls-1" d="M224.64,104.06h-21.5c-.21,0-1.13,1.49-1.49,1,.1-14.21,21.53-14.93,22.99-1Z"/>
      <path class="cls-1" d="M232.64,340.06v-5.01c7.75.74,15.3-1.39,23.01-1v6.01h-23.01Z"/>
      <polygon class="cls-1" points="195.64 340.06 171.64 340.06 173.29 335.2 194.19 334.31 195.64 340.06"/>
      <path class="cls-1" d="M291.64,340.06l1.45-5.64c7.02-.05,14.71,2.05,21.54-.36v6s-22.99,0-22.99,0Z"/>
      <path class="cls-1" d="M111.64,340.06l1.01-6.01c6.66,1.66,15.35,1.65,21.98,0v6s-22.99,0-22.99,0Z"/>
      <rect x="348.64" y="411.06" width="24" height="34"/>
      <rect x="348.64" y="352.06" width="24" height="33"/>
      <rect x="54.64" y="411.06" width="24" height="34"/>
      <path d="M78.64,352.06v33c-7.74-3.1-16.9,1.45-24-1.5v-31.5h24Z"/>
      <rect x="213.64" y="9.5" width="89.7" height="52.9"/>
    </g>
  </g>
</svg>