<?xml version="1.0" encoding="UTF-8"?>
<svg id="Layer_2" data-name="Layer 2" xmlns="http://www.w3.org/2000/svg" viewBox="0 0 392.67 412.92">
  <defs>
    <style>
      .cls-1 {
        fill: #fff;
      }
    </style>
  </defs>
  <g id="Layer_1-2" data-name="Layer 1">
    <g id="state">
      <path d="M215.15,5.88c34.49,6.94,60.86,39.58,64.39,74.11,1.38,2.02,7.97-.75,10.04,3.96.79,1.79,1,19.46.38,21.34-1.12,2.56-4.47,1.51-6.86,1.64v68.5l1.5,1.5h80l1.5,1.5v18.5l8.01.5c1.67.93,1.82,2.26,2.04,3.96.41,3.2.48,20.37-.25,22.84-.98,3.35-5.13,2.79-7.81,2.7v135.49s9.01,2.01,9.01,2.01v40l1.58,1.39c3.36-.83,8.1-1.76,11.4-.37,4.48,1.89,2.11,7.48.53,7.48H1.61c-1.46,0-2.48-5.22-.56-6.56,2.53-1.77,12.9,1.09,14.62-1.38l-.04-38.19c1.42-4.16,4.57-4.22,8.49-3.87v-136.01c-2.68.1-6.82.65-7.81-2.7-.66-2.25-.51-23.65.29-25.3,1.57-3.22,7.55-1.7,10.5-2v-18.5l1.5-1.5h80l1.26-68.54-5.75-1.96c-.88-.43-1.53-1.26-1.81-2.19-.73-2.47-.52-18.74.46-21.07,1.43-3.38,8.43-1.89,11.29-2.28,2.96-36.51,28.49-66.39,63.59-75.91C180.42,3.32,186.84.01,195.61,0c9.85-.02,16.88,4.12,19.54,5.88ZM282.11,88.92H111.11v10h171v-10ZM275.11,176.92v-65.5c0-.9-.53-3.87-1.5-4.5H118.11v70l13.03-.47,38.8-16.7c1.19-1.93-.4-31.66.12-37.38.75-8.15,8.63-12.83,15-6.9.6.56,3.05,4.66,3.05,4.95v31.5c6.57-4.99,10.25-2.1,17,0-.77-8.13-3.13-28.8,1.14-35.36,3.83-5.88,13.55-4.73,15.84,1.89l.14,41.36,40.61,16.89,12.28.22ZM79.11,218.93l233.54-.21c2.57-.26-.9-9.2,1.19-11.36l-117.2-50.33-116.53,49.39-1,12.51ZM109.11,184.92H36.11v10.99s1-9.99,1-9.99h66.5c1.26,0,3.43,1.12,5.49-.01v-.99ZM358.11,184.92h-74v.99c2.07,1.13,4.24.01,5.5.01h68.5v-1ZM71.11,205.92H26.61c-.25,0-.8-1.18-1.51-.58-1.55,1.06-1.88,11.94.51,13.58h45.5v-13ZM368.11,205.92h-44.5c-.3,0-.77-1.27-1.5-1v14h46v-13ZM71.11,226.92h-39v136h49c.4-3.09-.7-7.48.18-10.32.68-2.2,3.22-2.23,3.61-2.88.89-1.51.02-17.68.17-21.34.8-19.96.5-39.96,1-60,.05-2.18,1.42-5.27,1.12-6.78-.19-.95-2.28-1.11-3.11-2.11-2.54-3.06-2.1-7.96-1.41-11.59-1.62-2.31-11.56,1.33-11.56-2.48v-18.5ZM314.11,226.92H79.11v12h234c.23-4.01-.81-8.27,1-12ZM361.11,226.92h-40v18.5c-2.56,2.8-6.09,3.15-9.55,1.75l-.98.7c-1.4,2.38.23,7.36-.67,10.35-.52,1.72-2.7,2.44-3.29,3.71-2.21,4.76.42,17.87.53,23.45.42,21-.39,42.05-.05,63.05.6,2.75,3.63,2.6,4.58,5.42s.27,6.14.43,9.07h49v-136ZM90.11,253.92h22.5c2.25-1.62,1.44-4.57,1.49-7h-24s0,7,0,7ZM176.11,253.92v-6.52c-7.28-.63-14.69-.28-21.99-.48v7s21.99,0,21.99,0ZM240.11,246.92h-22.5c-2.26,1.62-1.43,4.57-1.5,7h24v-7ZM302.11,246.92h-17.5c-.3,0-4.9.71-5.03.93l-.47,6.07h23v-7ZM109.11,261.92h-15l-1,88h17l-1-88ZM172.11,261.92h-15l-2,88h19l-2-88ZM236.11,261.92h-15l-3,88h19l-1-88ZM299.11,261.92h-16l-2,88h19l-1-88ZM111.61,358.92c-7.31.85-16.02-.63-23.5,0v4h26v-5c-1.13-.38-2.07.95-2.5,1ZM178.11,362.92l-1.46-4.76h-24.09l-1.46,4.76h27ZM214.11,362.92h27v-5.01c-8.53-1.2-17.32,2.18-25.53.1l-1.47,4.91ZM304.11,357.92h-25.5l-1.37,1.63-.13,3.37h27v-5ZM73.11,370.92H24.11v35c1.08.37,2.19-1,2.5-1h36.5l.24-9.78c1.57-1.62,6.47.37,9.15-.33,2.45-.63.61-2.18.61-2.39v-21.5ZM312.11,370.92H81.11v9h229.5c2.61-2.13,1.22-5.98,1.5-9ZM369.11,370.92h-48.5l-1.5,1.5v21c0,3.18,8.69-.61,10.51,2.48l.49,9.02h37.5c.36,0,.81,1.63,1.5.51l.98-1.01c-.04-.38-.98-.69-.98-1v-32.5ZM312.11,387.92H81.11v7h231v-7ZM320.61,401.92H71.11v4c3.13-1.5,5.47-.06,8.46.05,13.4.48,27.61.1,41.08,0,59.46-.43,120.22-.78,179.92-1.1,6.72-.04,13.43.36,20.07.84l1.47-2.27-1.49-1.51Z"/>
      <path class="cls-1" d="M79.11,218.93l1-12.51,116.53-49.39,117.2,50.33c-2.09,2.15,1.38,11.09-1.19,11.36l-233.54.21ZM193.9,170.13c-25.97,2.54-21.94,40.9,2.66,39.82,26.54-1.17,23.48-42.38-2.66-39.82Z"/>
      <path class="cls-1" d="M275.11,176.92l-12.28-.22-40.61-16.89-.14-41.36c-2.29-6.62-12.01-7.77-15.84-1.89-4.27,6.56-1.91,27.23-1.14,35.36-6.74-2.1-10.43-4.98-17,0v-31.5c0-.29-2.46-4.39-3.05-4.95-6.36-5.92-14.25-1.25-15,6.9-.53,5.73,1.07,35.45-.12,37.38l-38.8,16.7-13.03.47v-70h155.5c.97.63,1.5,3.6,1.5,4.5v65.5ZM153.11,160.92v-42.5c0-1.51-6.19-5.49-8.52-5.57-2.82-.1-9.48,2.83-9.48,5.57v42.5h18ZM258.11,160.92l-1.21-43.29c-2.27-7.76-16.79-4.23-16.79.79v42.5h18Z"/>
      <path class="cls-1" d="M361.11,226.92v136h-49c-.17-2.92.5-6.25-.43-9.07s-3.98-2.67-4.58-5.42c-.34-21,.47-42.06.05-63.05-.11-5.57-2.74-18.69-.53-23.45.59-1.27,2.77-1.99,3.29-3.71.9-2.99-.73-7.97.67-10.35l.98-.7c3.45,1.41,6.99,1.05,9.55-1.75v-18.5h40ZM342.11,328.92c-1.34-15.01-1.4-30.41-1.04-45.54.09-3.99,2.54-9.04-.46-12.46h-20.5v58h22Z"/>
      <path class="cls-1" d="M71.11,226.92v18.5c0,3.81,9.94.17,11.56,2.48-.69,3.63-1.13,8.53,1.41,11.59.83,1,2.91,1.16,3.11,2.11.31,1.51-1.06,4.6-1.12,6.78-.5,20.04-.2,40.04-1,60-.15,3.67.73,19.83-.17,21.34-.39.65-2.93.68-3.61,2.88-.88,2.84.22,7.23-.18,10.32h-49v-136h39ZM72.11,270.92c-6.8.81-14.38,2.19-21,0v58h21v-58Z"/>
      <path class="cls-1" d="M314.11,226.92c-1.81,3.73-.77,7.99-1,12H79.11v-12h235Z"/>
      <path class="cls-1" d="M312.11,370.92c-.28,3.02,1.11,6.87-1.5,9H81.11v-9h231Z"/>
      <rect class="cls-1" x="111.11" y="88.92" width="171" height="10"/>
      <rect class="cls-1" x="81.11" y="387.92" width="231" height="7"/>
      <path class="cls-1" d="M369.11,370.92v32.5c0,.31.95.62.98,1l-.98,1.01c-.69,1.12-1.14-.51-1.5-.51h-37.5l-.49-9.02c-1.82-3.09-10.51.7-10.51-2.48v-21l1.5-1.5h48.5Z"/>
      <path class="cls-1" d="M73.11,370.92v21.5c0,.21,1.84,1.76-.61,2.39-2.68.69-7.58-1.29-9.15.33l-.24,9.78H26.61c-.31,0-1.42,1.37-2.5,1v-35h49Z"/>
      <polygon class="cls-1" points="299.11 261.92 300.11 349.92 281.11 349.92 283.11 261.92 299.11 261.92"/>
      <polygon class="cls-1" points="172.11 261.92 174.11 349.92 155.11 349.92 157.11 261.92 172.11 261.92"/>
      <polygon class="cls-1" points="236.11 261.92 237.11 349.92 218.11 349.92 221.11 261.92 236.11 261.92"/>
      <polygon class="cls-1" points="109.11 261.92 110.11 349.92 93.11 349.92 94.11 261.92 109.11 261.92"/>
      <path class="cls-1" d="M320.61,401.92l1.49,1.51-1.47,2.27c-6.65-.48-13.36-.87-20.07-.84-59.69.32-120.46.67-179.92,1.1-13.47.1-27.68.48-41.08,0-2.99-.11-5.33-1.55-8.45-.05v-4s249.49,0,249.49,0Z"/>
      <path class="cls-1" d="M71.11,205.92v13H25.61c-2.39-1.64-2.06-12.52-.51-13.58.71-.6,1.26.58,1.51.58h44.5Z"/>
      <path class="cls-1" d="M368.11,205.92v13h-46v-14c.73-.27,1.2,1,1.5,1h44.5Z"/>
      <path class="cls-1" d="M240.11,246.92v7h-24c.07-2.43-.76-5.38,1.5-7h22.5Z"/>
      <path class="cls-1" d="M90.11,253.92v-7s23.99,0,23.99,0c-.05,2.43.76,5.38-1.49,7h-22.5Z"/>
      <path class="cls-1" d="M302.11,246.92v7h-23l.47-6.07c.13-.22,4.73-.93,5.03-.93h17.5Z"/>
      <path class="cls-1" d="M176.11,253.92h-22v-7c7.31.2,14.72-.14,22.01.48v6.52Z"/>
      <polygon class="cls-1" points="304.11 357.92 304.11 362.92 277.11 362.92 277.24 359.55 278.61 357.92 304.11 357.92"/>
      <path class="cls-1" d="M214.11,362.92l1.47-4.91c8.21,2.09,17-1.29,25.53-.1v5.01h-27.01Z"/>
      <polygon class="cls-1" points="178.11 362.92 151.11 362.92 152.57 358.17 176.65 358.17 178.11 362.92"/>
      <path class="cls-1" d="M111.61,358.92c.43-.05,1.37-1.37,2.49-1v5s-25.99,0-25.99,0v-4c7.48-.63,16.19.85,23.5,0Z"/>
      <path class="cls-1" d="M109.11,184.92v.99c-2.07,1.13-4.24.01-5.5.01H37.11l-.99,9.99v-10.99s72.99,0,72.99,0Z"/>
      <path class="cls-1" d="M358.11,184.92v1h-68.5c-1.26,0-3.43,1.12-5.49-.01v-.99s73.99,0,73.99,0Z"/>
      <path d="M193.9,170.13c26.14-2.56,29.2,38.65,2.66,39.82-24.6,1.08-28.63-37.27-2.66-39.82ZM191.82,177.14c-12.27,2.83-13.21,25.78,3.79,25.87,19.95.1,16.57-30.57-3.79-25.87Z"/>
      <path d="M153.11,160.92h-18v-42.5c0-2.74,6.66-5.67,9.48-5.57,2.33.08,8.52,4.07,8.52,5.57v42.5Z"/>
      <path d="M258.11,160.92h-18v-42.5c0-5.02,14.52-8.55,16.79-.79l1.21,43.29Z"/>
      <path d="M342.11,328.92h-22v-58h20.5c3,3.42.55,8.47.46,12.46-.36,15.13-.3,30.53,1.04,45.54Z"/>
      <path d="M72.11,270.92v58h-21v-58c6.62,2.19,14.2.81,21,0Z"/>
      <path class="cls-1" d="M191.82,177.14c20.37-4.7,23.75,25.97,3.79,25.87-17-.09-16.07-23.03-3.79-25.87Z"/>
    </g>
  </g>
</svg>