<?xml version="1.0" encoding="UTF-8"?><svg id="b" xmlns="http://www.w3.org/2000/svg" width="172.53" height="155.61" viewBox="0 0 172.53 155.61"><g id="c"><path d="M86.58,14.19L17.45,49.24v103.38h137.64V49.24L86.58,14.19Z" style="fill:#333132;"/><polygon points="146.8 30.77 146.8 6.98 124.15 6.98 124.15 19.2 86.66 0 1.5 43.19 1.5 57.59 86.66 14.41 171.03 57.59 171.03 43.19 146.8 30.77" style="fill:#333132;"/><path d="M1.5,59.09c-.55,0-1.07-.3-1.34-.82-.38-.73-.08-1.63.66-2L85.99,13.08c.43-.21.93-.21,1.36,0l84.37,43.18c.73.38,1.02,1.27.65,2.01-.37.73-1.27,1.02-2.01.65L86.65,16.09,2.17,58.92c-.21.11-.44.16-.67.16Z" style="fill:#fff;"/><path d="M58.54,66.62c1.03-2.5,4.05-3.65,6.74-2.54h0c2.69,1.11,4.04,4.04,3,6.55l-11.35,27.59c-1.04,2.52-4.06,3.66-6.75,2.55h0c-2.68-1.11-4.03-4.05-3-6.57l11.35-27.59Z" style="fill:#333132;"/><path d="M52.3,102.7c-.91,0-1.82-.18-2.68-.54-3.45-1.42-5.16-5.25-3.81-8.52l11.35-27.59c1.31-3.18,5.33-4.73,8.7-3.36,1.71.71,3.09,2.07,3.78,3.73.66,1.56.67,3.26.04,4.79l-11.35,27.58c-.98,2.37-3.34,3.91-6.02,3.91ZM63.17,65.16c-1.46,0-2.73.8-3.24,2.04l-11.35,27.58c-.72,1.76.26,3.82,2.18,4.62,1.87.77,4.1-.05,4.8-1.74l11.35-27.58c.32-.79.32-1.68-.03-2.5-.39-.93-1.18-1.7-2.16-2.1-.5-.21-1.02-.31-1.54-.31Z" style="fill:#fff;"/><path d="M91.44,66.62c-1.04-2.5-4.05-3.65-6.74-2.54h0c-2.69,1.11-4.04,4.04-3,6.55l15.54,26.25c1.03,2.52,4.05,3.66,6.74,2.55h0c2.69-1.12,4.04-4.05,3-6.57l-15.54-26.25Z" style="fill:#333132;"/><path d="M101.87,101.36h0c-2.68,0-5.04-1.54-6.01-3.91l-15.44-26.06c-1.44-3.46.27-7.28,3.72-8.7,3.37-1.37,7.38.18,8.69,3.36l15.45,26.06c1.44,3.45-.27,7.28-3.71,8.71-.87.36-1.77.54-2.69.54ZM86.81,65.16c-.53,0-1.05.1-1.55.31-1.92.79-2.91,2.86-2.18,4.61l15.44,26.06c.82,1.96,3.01,2.71,4.89,1.93,1.92-.8,2.91-2.87,2.18-4.61l-15.44-26.07c-.61-1.43-1.88-2.23-3.34-2.23Z" style="fill:#fff;"/><path d="M86.18,50.58c0,5.88-4.76,10.64-10.64,10.64s-10.63-4.77-10.63-10.64,4.76-10.63,10.63-10.63,10.64,4.77,10.64,10.63Z" style="fill:#333132;"/><path d="M75.54,62.72c-6.69,0-12.13-5.45-12.13-12.14s5.44-12.12,12.13-12.12,12.12,5.44,12.12,12.12-5.43,12.14-12.12,12.14ZM75.54,41.45c-5.04,0-9.14,4.09-9.14,9.13s4.1,9.14,9.14,9.14,9.14-4.1,9.14-9.14-4.1-9.13-9.14-9.13Z" style="fill:#fff;"/><path d="M63.15,63.79v39.51c-.03.27-.04.53-.04.77v44.55c0,3.03,2.64,5.5,5.9,5.5s5.89-2.46,5.89-5.5v-43.89h.9v43.89c0,3.03,2.63,5.5,5.89,5.5s5.9-2.46,5.9-5.5V63.79h-24.45Z" style="fill:#333132;"/><path d="M81.7,155.61c-2.69,0-5.05-1.37-6.34-3.41-1.29,2.04-3.65,3.41-6.34,3.41-4.08,0-7.39-3.14-7.39-6.99v-44.55c0-.29.02-.61.05-.94v-39.34c0-.82.66-1.5,1.48-1.5h24.45c.82,0,1.49.68,1.49,1.5v84.82c0,3.86-3.31,6.99-7.39,6.99ZM74.9,103.23h.9c.82,0,1.49.67,1.49,1.5v43.89c0,2.21,1.98,4,4.4,4s4.41-1.79,4.41-4v-83.33h-21.45v38.02c-.04.38-.04.59-.04.77v44.55c0,2.21,1.97,4,4.4,4s4.4-1.79,4.4-4v-43.89c0-.82.67-1.5,1.49-1.5Z" style="fill:#fff;"/><path d="M109.25,153.77c-3.11,0-5.64-2.4-5.64-5.36l-.08-1.14-.09,1.25c0,2.84-2.52,5.25-5.63,5.25s-5.64-2.4-5.64-5.36l1.3-23.53-.29-12.98-10.82-12.47c-.73-.84-1.09-1.94-1-3.07.09-1.2.66-2.34,1.59-3.13.85-.73,1.92-1.13,3.02-1.13,1.24,0,2.41.52,3.2,1.43l9.35,10.78c.16-.02.33-.03.5-.03,0,0,9.16,0,9.23.01l11.76-9.25c.74-.59,1.63-.9,2.6-.9,1.39,0,2.68.65,3.57,1.77,1.53,1.95,1.26,4.73-.59,6.21l-11.64,9.16-.3,13.71,1.24,23.34c0,3.04-2.53,5.44-5.64,5.44Z" style="fill:#333132;"/><path d="M85.97,93.59c.78,0,1.54.3,2.08.92l9.9,11.42c.34-.1.7-.15,1.07-.15h9.07c.21,0,.42.02.62.05l12.22-9.61c.49-.39,1.08-.58,1.68-.58.88,0,1.77.41,2.39,1.2,1.03,1.31.87,3.14-.35,4.11l-12.19,9.59v.11s-.32,14.31-.32,14.31l1.23,23.45c0,2.13-1.85,3.86-4.14,3.86s-4.14-1.73-4.14-3.86l-1.23-17.12h-.63l-1.3,17.12c0,2.13-1.86,3.86-4.14,3.86s-4.14-1.73-4.14-3.86l1.3-23.45-.3-13.63-11.16-12.88c-1.02-1.17-.82-3.01.43-4.09.6-.52,1.33-.77,2.04-.77M85.97,90.6v3-3c-1.45,0-2.87.53-3.99,1.5-1.22,1.05-1.99,2.56-2.11,4.15-.11,1.54.37,3.02,1.37,4.16l10.46,12.07.28,12.55-1.29,23.22c0,3.95,3.2,7.02,7.12,7.02,2.33,0,4.4-1.08,5.71-2.75,1.29,1.65,3.38,2.75,5.73,2.75,3.93,0,7.13-3.07,7.13-6.86l-1.24-23.61.29-12.8,11.08-8.7c2.5-2,2.88-5.72.85-8.31-1.17-1.49-2.9-2.35-4.74-2.35-1.31,0-2.53.43-3.54,1.23l-11.33,8.91h-8.57l-8.88-10.24c-1.09-1.24-2.67-1.95-4.34-1.95h0Z" style="fill:#fff;"/><path d="M103.73,105.34c-4.59,0-8.33-3.74-8.33-8.33s3.73-8.33,8.33-8.33,8.32,3.73,8.32,8.33-3.73,8.33-8.32,8.33Z" style="fill:#333132;"/><path d="M103.73,90.18c3.77,0,6.83,3.06,6.83,6.83s-3.06,6.83-6.83,6.83-6.83-3.05-6.83-6.83,3.06-6.83,6.83-6.83M103.73,87.19c-5.42,0-9.82,4.41-9.82,9.82s4.41,9.82,9.82,9.82,9.82-4.41,9.82-9.82-4.41-9.82-9.82-9.82h0Z" style="fill:#fff;"/></g></svg>