<?xml version="1.0" encoding="UTF-8"?><svg id="b" xmlns="http://www.w3.org/2000/svg" width="80" height="76" viewBox="0 0 80 76"><g id="c"><path d="M79.56,30.82l-14.99-11.92c-.09-.07-.14-.17-.14-.28v-7.33c0-.2-.16-.36-.36-.36h-5.68c-.2,0-.36.16-.36.36v1.65c0,.3-.35.47-.59.28L41.45.51c-.85-.68-2.05-.68-2.9,0L.44,30.82c-.68.54-.56,1.6.22,1.97l2.13,1.03c.41.2.89.14,1.24-.14L38.55,6.22c.85-.68,2.05-.68,2.9,0l34.52,27.46c.35.28.83.33,1.24.14l2.13-1.03c.78-.38.9-1.44.22-1.97Z"/><path d="M71.82,34.19l-30.14-23.98c-.98-.78-2.37-.78-3.35,0l-30.14,23.98c-1.1.88-1.74,2.21-1.74,3.61v34.75c0,1.9,1.54,3.45,3.45,3.45h39.24-18.87c-1.01,0-1.83-.82-1.83-1.83v-11.11h-5.02c-.52,0-.9-.5-.77-1l5.86-21.56c.04-.13-.16-.19-.2-.06l-3.7,10.8c-.32.44-.89.65-1.44.51-.88-.24-1.24-1.16-.82-1.97l4.16-13.33c.77-1.47,2.29-2.39,3.95-2.39h4.4c.69,0,1.36.16,1.96.46l.6-1.28c.84-1.61,2.51-2.63,4.34-2.63h6.96c1.82,0,3.49,1.01,4.34,2.63l4.57,13.98c.46.89.07,1.9-.9,2.16-.61.16-1.23-.07-1.59-.55l-4.06-11.86c-.05-.14-.26-.08-.22.07l.09,24.76s0,8.54,0,12.37c0,1.01-.82,1.83-1.83,1.83h20.99c1.9,0,3.45-1.54,3.45-3.45v-34.75c0-1.41-.64-2.74-1.74-3.61ZM32.67,32.93c-2.17,0-3.93-1.76-3.93-3.93s1.76-3.93,3.93-3.93,3.93,1.76,3.93,3.93-1.76,3.93-3.93,3.93ZM45.24,28.42c-2.17,0-3.93-1.76-3.93-3.93s1.76-3.93,3.93-3.93,3.93,1.76,3.93,3.93-1.76,3.93-3.93,3.93Z"/><path d="M40,56.32c1.53,0,2.77-1.24,2.77-2.77s-1.24-2.77-2.77-2.77-2.77,1.24-2.77,2.77,1.24,2.77,2.77,2.77Z"/><path d="M48.93,53.54c-.16-1-1.4-1.38-2.09-.64l-3.65,3.52c-.41.4-.96.62-1.53.61-1.02,0-2.31,0-3.33,0-.57,0-1.12-.22-1.53-.61l-3.65-3.52c-.69-.74-1.93-.36-2.09.64-.06.38.07.76.33,1.04l5.61,5.35-3.18,8.36c-.1.26.09.53.37.53h2.79v5.88c-.01.73.59,1.33,1.33,1.3.71-.02,1.26-.64,1.26-1.36v-5.41c0-.23.18-.41.41-.41h0c.23,0,.41.18.41.41v5.41c0,.71.55,1.34,1.26,1.36.74.02,1.34-.57,1.34-1.3v-5.88s2.78,0,2.78,0c.27,0,.46-.27.37-.53l-3.18-8.36,5.61-5.35c.26-.28.39-.66.33-1.04Z"/></g></svg>