<?xml version="1.0" encoding="UTF-8"?><svg id="b" xmlns="http://www.w3.org/2000/svg" width="542.18" height="476.45" viewBox="0 0 542.18 476.45"><g id="c"><circle cx="418.45" cy="144.82" r="47.12" style="fill:#2d2d2d;"/><circle cx="128.3" cy="56.88" r="56.88" transform="translate(51.6 174.42) rotate(-80.78)" style="fill:#2d2d2d;"/><path d="M326.3,189.99h-72.87c-1.96,0-3.55-1.59-3.55-3.55v-72.87c0-1.96,1.59-3.55,3.55-3.55h72.87c1.96,0,3.55,1.59,4,3.55v72.87c-.46,1.96-2.04,3.55-4,3.55ZM256.98,182.9h65.77v-65.77h-65.77v65.77Z" style="fill:#2d2d2d;"/><path d="M273.36,173.29c-.45,0-.91-.09-1.35-.27-1.81-.74-2.68-2.82-1.93-4.63l16.22-39.45c.54-1.32,1.83-2.19,3.26-2.2h.02c1.42,0,2.71.85,3.26,2.16l16.79,39.45c.77,1.8-.07,3.89-1.87,4.65-1.8.77-3.89-.07-4.65-1.87l-13.47-31.65-13,31.61c-.56,1.37-1.89,2.2-3.28,2.2Z" style="fill:#2d2d2d;"/><path d="M300.72,160.01h-21.9c-1.96,0-3.55-1.59-3.55-3.55s1.59-3.55,3.55-3.55h21.9c1.96,0,3.55,1.59,3.55,3.55s-1.59,3.55-3.55,3.55Z" style="fill:#2d2d2d;"/><path d="M345.28,308.09l69.03,23.32c1.86.63,2.85,2.64,2.23,4.5l-23.32,69.03c-.63,1.86-2.64,2.85-4.5,2.23l-69.03-23.32c-1.86-.63-2.85-2.64-2.22-4.5l23.32-69.03c.63-1.86,2.64-2.85,4.5-2.22ZM408.69,337l-62.31-21.05-21.05,62.31,62.31,21.05,21.05-62.31Z" style="fill:#2d2d2d;"/><path d="M369.91,334.16c12.38,4.18,17.63,14.64,13.69,27.29-2.22,7.15-6.57,12.68-12.24,15.57-4.95,2.53-10.66,2.91-16.08,1.08-4.45-1.5-7.53-3.72-8.92-5.3-1.3-1.47-1.16-3.71.31-5.01,1.47-1.3,3.71-1.16,5.01.31.45.51,2.39,2.1,5.87,3.27,3.64,1.23,7.3.99,10.58-.68,3.96-2.02,7.04-6.05,8.69-11.36,2.79-8.97-.48-15.52-9.19-18.47-3.34-1.13-6.01-1.27-6.9-1.09-1.92.37-3.78-.88-4.16-2.8-.37-1.92.88-3.78,2.8-4.16,2.57-.5,6.61.01,10.53,1.34Z" style="fill:#2d2d2d;"/><path d="M205.18,322.99l2.73-2,38.98,52.98-52.98,38.98-36.38-49.45c-.28-.21-.55-.4-.84-.62l-.07-.05-.06-.05-8.34-6.67-.34.25c-1.58,1.16-1.92,3.38-.76,4.96l43.18,58.69c1.16,1.58,3.38,1.92,4.96.76l58.69-43.18c1.58-1.16,1.92-3.38.76-4.96l-43.18-58.69c-1.16-1.58-3.38-1.92-4.96-.76l-2.18,1.6c-.4,1.38-.97,2.7-1.71,3.94.98,1.36,1.8,2.8,2.51,4.28Z" style="fill:#2d2d2d;"/><path d="M208.6,358.84c1.58-1.16,3.8-.82,4.96.75l-8.76-11.91c-.79,1.54-1.72,3.04-2.83,4.45l-1.39,1.78,5.17,7.03,2.86-2.1Z" style="fill:#2d2d2d;"/><path d="M193.59,375c-.03,2.41.46,5.36,2.35,8.07,2.49,3.57,6.35,5.67,10.34,5.63,3.9.1,6.73-1.76,10.29-4.38l.09-.06c3.01-2.23,5.87-4.32,7.29-6.09,1.01-1.25,1.05-3.03.09-4.32l-10.48-14.24c1.16,1.58.82,3.8-.76,4.96l-2.86,2.1,6.51,8.85c-1.22.98-2.75,2.12-4.01,3.03l-.09.06c-3.27,2.4-4.54,3.05-5.95,3-.06,0-.12,0-.18,0-.79.01-2.82-.21-4.48-2.59-1.36-1.95-1.15-4.37-.91-5.65l-1.03.75c-1.58,1.16-3.8.82-4.96-.75-1.16-1.58-.82-3.8.76-4.96l.61-.45c-2.16.4-4.38-.7-6.16-3.13-.11-.15-.18-.31-.28-.46-2.1,1.28-4.27,2.3-6.47,3.06.32.54.65,1.07,1.04,1.6,2.47,3.36,5.77,5.44,9.24,5.97Z" style="fill:#2d2d2d;"/><path d="M208.6,358.84l-2.86,2.1-9.52,7.01-.61.45c-1.58,1.16-1.92,3.38-.76,4.96,1.16,1.58,3.38,1.92,4.96.75l1.03-.75,9.11-6.7,2.86-2.1c1.58-1.16,1.92-3.38.76-4.96,0,0,0,0,0,0,0,0,0,0,0,0-1.16-1.58-3.38-1.92-4.96-.75Z" style="fill:#2d2d2d;"/><path d="M41.55,191.99l-11.83,78.59h27.08l3.78-34.33,6.56,35c.38,2.04,1.01,3.97,1.79,5.81.34.79.72,1.55,1.13,2.3.15.27.28.56.44.83.51.88,1.08,1.73,1.69,2.55.09.12.16.25.25.37.22.31.49.59.73.88.49.61.97,1.24,1.49,1.79.77.82,1.59,1.6,2.48,2.34h0s10.89,8.46,10.89,8.46l62.81,48.78,11.98,9.58c1.34,1.04,2.76,1.99,4.31,2.66,2.27.98,4.56,1.43,6.84,1.43,4.13,0,8.21-1.5,12.02-4.16.45-.32.89-.65,1.31-1.01,1.22-1.03,2.31-2.22,3.29-3.47l3.47-4.43c5.56-7.1,4.94-17.24-1.44-23.61l-3.84-3.79c-.1-.11-.19-.22-.3-.32l-1.06-1.05,2.25-.49c1.13-.24,2.13-.76,2.95-1.45,1.86-1.58,2.81-4.1,2.26-6.65-.69-3.19-3.52-5.37-6.65-5.37-.48,0-.97.05-1.45.16l-10.95,2.38-55.28-54.42-6.32-33.76,15.61,28.81,23.81,23.44v-52.47l10.04,54.63c1.73.59,3.54,1.04,5.43,1.28l74.96,7.35,17.91,1.76,15.25,1.72c.84.08,1.69.13,2.53.13s1.69-.05,2.53-.18c3.03-.48,5.64-1.68,7.89-3.42,2.83-2.19,5.05-5.24,6.62-8.95.21-.51.4-1.02.57-1.55.48-1.52.77-3.1.93-4.7l.57-5.6c.92-8.98-5.01-17.22-13.81-19.2l-5.27-1.16c-.14-.03-.28-.08-.43-.11l-1.46-.32,1.64-1.61c.82-.81,1.4-1.77,1.72-2.8.73-2.33.19-4.97-1.64-6.83-1.33-1.36-3.1-2.04-4.86-2.04s-3.45.65-4.77,1.95l-8,7.86-72.11-15.75-26.25-41.69-16.97-26.95c-16.54-25.04-30.2-26.05-40.18-26.31-11.18-.29-57.8,5.13-64.93,67.13Z" style="fill:#2d2d2d;"/><path d="M501.97,264.89l-42.84-49.39s-8.7-12.64-30.48-12.64h-25.55c-2.87,0-5.64.41-8.29,1.11-2,.22-4,.75-5.94,1.61l-45.16,20.2-27.85-35.4-.72-.92h-37.05c.05.98.2,1.97.5,2.97.35,1.15.91,2.23,1.54,3.25l5.82,9.21,34.6,56.53c2.73,4.19,6.78,6.97,11.25,8.21,4.37,1.26,9.19,1.06,13.67-.95l25.29-11.31v13.21h76.49l-.31-8.27,7.18,8.27h12.5l-13.07,16.32-10.33,12.9-10.05,12.55-6.29-.61-1.63-.16c-.15-.01-.32-.02-.47-.02-.33,0-.64.04-.93.09-.27.05-.53.13-.79.23-.01,0-.03,0-.04.01-1.64.64-2.87,2.17-3.05,4.04-.18,1.85.7,3.55,2.15,4.5.64.42,1.39.7,2.2.78l1.63.16-.66.83c-.07.08-.12.17-.18.25l-2.39,2.99c-3.97,5.03-3.56,12.23.95,16.77l2.82,2.84c.8.81,1.67,1.55,2.61,2.18.33.22.66.42,1.01.6,2.43,1.3,4.93,2.02,7.38,2.02,2.11,0,4.18-.53,6.15-1.67,1.04-.6,1.96-1.39,2.82-2.23l7.65-7.76,45.58-44.93c.1-.08.2-.15.3-.23,8.32-7.22,9.21-19.81,2-28.13Z" style="fill:#2d2d2d;"/><path d="M426.2,301.59l2.52.24,16.98-21.21h-142.34c-1.94,3.11-4.28,5.79-7.05,7.94-3.7,2.86-7.9,4.68-12.48,5.4-1.31.21-2.65.31-4.09.31-1.09,0-2.23-.06-3.49-.18h-.08s-.08-.02-.08-.02l-15.17-1.71-17.84-1.75-74.96-7.35h-.14s-.14-.03-.14-.03c-.23-.03-.47-.08-.7-.11l11.85,11.67,5.65-1.23c1.18-.26,2.39-.39,3.59-.39,7.31,0,13.79,4.82,16.02,11.67h211.13c2.56-2.08,5.83-3.33,9.39-3.33.48,0,.96.02,1.43.07Z" style="fill:#2d2d2d;"/><path d="M516.73,280.62c-.67,7.46-4.09,14.69-10.18,19.98-.07.06-.15.13-.22.19l-4.12,4.06h15.75v147.38H24.22v-147.38h58.09l-11.33-8.8-.11-.09-.11-.09c-2.34-1.92-4.48-4.19-6.37-6.75-2.02-2.65-3.63-5.49-4.88-8.5H0v24.22h0v171.6h542.18v-195.82h-25.45Z" style="fill:#2d2d2d;"/><path d="M315.86,190.38s-9.98-12.7-12.35-15.13c-3.64-3.74-14.85-4.44-11.16,5.56,2.26,6.13,3.06,7.59,3.06,7.59l20.45,1.98" style="fill:#2d2d2d;"/></g></svg>