<?xml version="1.0" encoding="UTF-8"?><svg id="b" xmlns="http://www.w3.org/2000/svg" width="172.53" height="155.26" viewBox="0 0 172.53 155.26"><g id="c"><path d="M86.59,14.18L17.45,49.24v103.37h137.63V49.24L86.59,14.18Z" style="fill:#333132;"/><polygon points="146.8 30.77 146.8 6.98 124.16 6.98 124.16 19.19 86.66 0 1.5 43.16 1.5 57.59 86.66 14.42 171.04 57.59 171.04 43.16 146.8 30.77" style="fill:#333132;"/><path d="M1.5,59.09c-.54,0-1.07-.3-1.34-.82-.37-.74-.07-1.64.66-2.01L85.98,13.09c.43-.21.94-.21,1.37,0l84.37,43.17c.73.38,1.02,1.28.64,2.01-.37.74-1.26,1.02-2.01.66L86.66,16.1,2.17,58.93c-.21.11-.45.16-.68.16Z" style="fill:#fff;"/><path d="M83.51,153.76c-2.15,0-4.06-1.02-5.2-2.58-1.14,1.56-3.04,2.58-5.2,2.58-3.48,0-6.32-2.69-6.32-6v-19.86h-9.18c-.47,0-.92-.23-1.2-.61-.29-.37-.37-.87-.23-1.32l9.66-31.6.71-5.69-.18-2.51-4.8,11.68c-.96,2.34-3.29,3.85-5.93,3.85-.92,0-1.81-.18-2.66-.53-1.68-.69-3.03-2.02-3.73-3.66-.64-1.55-.66-3.23-.04-4.75l11.17-27.14c.95-2.34,3.28-3.84,5.92-3.84.5,0,1,.05,1.49.16l20.62-.04c.16-.07.67-.12,1.16-.12,2.64,0,4.96,1.51,5.93,3.85l11.16,27.14c.62,1.51.61,3.2-.04,4.74-.68,1.64-2.04,2.97-3.72,3.66-.86.35-1.75.53-2.66.53-2.64,0-4.96-1.51-5.93-3.85l-4.06-9.86-.09,1.41.66,5.22,9.65,31.34c.14.45.05.95-.23,1.33-.29.38-.73.61-1.2.61h-9.23v19.86c0,3.31-2.83,6-6.32,6Z" style="fill:#333132;"/><path d="M89.6,63.28c1.97,0,3.79,1.09,4.54,2.92l11.17,27.14c1.02,2.48-.3,5.37-2.95,6.45-.69.28-1.4.42-2.09.42-1.97,0-3.79-1.09-4.54-2.93l-6.52-15.85-.5,7.87.67,5.5,9.7,31.6h-10.72v21.36c0,2.49-2.16,4.5-4.83,4.5s-4.83-2.01-4.83-4.5v-21.36h-.73v21.36c0,2.49-2.16,4.5-4.82,4.5s-4.82-2.01-4.82-4.5v-21.36h-10.68l9.66-31.6.77-5.94-.62-9.16-7.23,17.57c-.75,1.84-2.58,2.93-4.54,2.93-.7,0-1.4-.14-2.09-.42-2.65-1.08-3.97-3.98-2.95-6.45l11.17-27.14c.75-1.83,2.57-2.92,4.54-2.92.39,0,.77.04,1.17.12h20.95c.39-.09.78-.12,1.16-.12M89.6,60.29c-.48,0-.98.04-1.46.12h-20.36c-.48-.08-.98-.12-1.46-.12-3.25,0-6.12,1.87-7.31,4.78l-11.17,27.13c-.77,1.89-.76,3.98.04,5.89.85,2.03,2.46,3.62,4.54,4.46,1.03.43,2.11.64,3.23.64,3.25,0,6.12-1.87,7.31-4.77l.34-.83-8.54,27.94c-.28.91-.11,1.89.46,2.66.56.76,1.45,1.21,2.4,1.21h7.68v18.36c0,4.13,3.51,7.5,7.82,7.5,1.99,0,3.81-.72,5.2-1.9,1.38,1.18,3.2,1.9,5.2,1.9,4.31,0,7.82-3.37,7.82-7.5v-18.36h7.73c.95,0,1.84-.45,2.4-1.22.57-.76.74-1.74.45-2.65l-7.68-25.02c1.46,1.69,3.64,2.69,6.03,2.69,1.11,0,2.2-.21,3.24-.64,2.04-.84,3.69-2.46,4.53-4.46.8-1.91.82-4.01.04-5.89l-11.17-27.13c-1.19-2.9-4.06-4.77-7.31-4.77h0Z" style="fill:#fff;"/><path d="M78.5,62.37c-6.59,0-11.96-5.36-11.96-11.96s5.37-11.96,11.96-11.96,11.96,5.36,11.96,11.96-5.36,11.96-11.96,11.96Z" style="fill:#333132;"/><path d="M78.5,39.94c5.77,0,10.46,4.68,10.46,10.47s-4.69,10.46-10.46,10.46-10.46-4.69-10.46-10.46,4.68-10.47,10.46-10.47M78.5,36.95c-7.41,0-13.45,6.04-13.45,13.46s6.04,13.46,13.45,13.46,13.46-6.04,13.46-13.46-6.04-13.46-13.46-13.46h0Z" style="fill:#fff;"/><path d="M105.83,153.76c-3.1,0-5.62-2.4-5.62-5.36l-.09-1.18-.1,1.3c0,2.84-2.52,5.24-5.62,5.24s-5.63-2.4-5.63-5.36l1.29-23.53-.29-12.98-10.8-12.46c-.77-.88-1.12-2.03-1-3.22.12-1.15.68-2.21,1.57-2.99.84-.73,1.91-1.14,3.01-1.14,1.24,0,2.42.54,3.22,1.46l9.34,10.76c.17-.01.34-.03.5-.03,0,0,9.16,0,9.23.02l11.76-9.25c.74-.58,1.64-.89,2.59-.89,1.37,0,2.71.66,3.58,1.77.76.96,1.11,2.2.97,3.39-.13,1.13-.69,2.13-1.57,2.82l-11.63,9.14-.3,13.73,1.23,23.34c0,3.03-2.53,5.43-5.63,5.43Z" style="fill:#333132;"/><path d="M82.55,93.57c.79,0,1.55.32,2.09.94l9.9,11.41c.34-.09.7-.15,1.07-.15h9.09c.21,0,.41.01.61.05l12.22-9.61c.49-.38,1.07-.57,1.67-.57.89,0,1.79.41,2.4,1.2,1.03,1.31.88,3.14-.35,4.1l-12.19,9.59v.11l-.32,14.32,1.23,23.45c0,2.14-1.86,3.86-4.14,3.86s-4.13-1.72-4.13-3.86l-1.24-17.12h-.64l-1.3,17.12c0,2.14-1.85,3.86-4.13,3.86s-4.14-1.72-4.14-3.86l1.3-23.45-.3-13.64-11.16-12.87c-1.02-1.17-.82-3,.43-4.1.59-.52,1.32-.77,2.03-.77M82.55,90.59v2.98-2.98c-1.46,0-2.88.53-4,1.51-1.18,1.02-1.91,2.43-2.07,3.96-.17,1.59.33,3.17,1.35,4.36l10.45,12.05.29,12.56-1.3,23.22c0,3.94,3.2,7.02,7.13,7.02,2.33,0,4.4-1.08,5.7-2.76,1.3,1.65,3.39,2.76,5.74,2.76,3.94,0,7.13-3.08,7.13-6.86l-1.23-23.61.29-12.79,11.08-8.71c1.19-.93,1.94-2.29,2.12-3.81.19-1.58-.28-3.22-1.29-4.49-1.16-1.48-2.89-2.34-4.75-2.34-1.29,0-2.5.41-3.51,1.21l-11.35,8.92h-8.57l-8.88-10.23c-1.07-1.25-2.66-1.96-4.34-1.96h0Z" style="fill:#fff;"/><path d="M100.32,105.34c-4.59,0-8.33-3.73-8.33-8.33s3.74-8.33,8.33-8.33,8.32,3.74,8.32,8.33-3.73,8.33-8.32,8.33Z" style="fill:#333132;"/><path d="M100.32,90.19c3.77,0,6.83,3.05,6.83,6.83s-3.06,6.83-6.83,6.83-6.83-3.07-6.83-6.83,3.06-6.83,6.83-6.83M100.32,87.19c-5.41,0-9.82,4.41-9.82,9.82s4.41,9.82,9.82,9.82,9.82-4.41,9.82-9.82-4.4-9.82-9.82-9.82h0Z" style="fill:#fff;"/><path d="M104.94,92.53c-1.17,0-2.44-.26-3.67-.77-2.13-.87-3.79-2.3-4.43-3.82-.36-.87-.39-1.74-.07-2.52.55-1.36,2.01-2.14,4-2.14,1.16,0,2.43.26,3.66.77,1.48.6,2.75,1.49,3.61,2.51,1.06,1.26,1.38,2.66.9,3.84-.56,1.36-2.02,2.13-3.99,2.13Z" style="fill:#333132;"/><path d="M100.76,84.78c.93,0,2.01.21,3.09.65,2.6,1.06,4.25,3.03,3.69,4.4-.32.79-1.33,1.21-2.61,1.21-.93,0-2.01-.22-3.11-.67-2.59-1.06-4.25-3.02-3.69-4.39.33-.8,1.33-1.21,2.62-1.21M100.76,81.78h0c-2.59,0-4.61,1.15-5.39,3.08-.46,1.12-.43,2.43.08,3.65.8,1.91,2.71,3.6,5.25,4.63,1.4.58,2.88.89,4.23.89,2.58,0,4.59-1.14,5.37-3.05.7-1.72.3-3.68-1.13-5.38-1-1.2-2.49-2.24-4.19-2.93-1.41-.58-2.88-.88-4.23-.88h0Z" style="fill:#fff;"/></g></svg>