<?xml version="1.0" encoding="UTF-8"?><svg id="b" xmlns="http://www.w3.org/2000/svg" width="83.61" height="169.55" viewBox="0 0 83.61 169.55"><g id="c"><path d="M17.37,39.61c1.54-3.73,6.02-5.42,10.02-3.78h0c3.99,1.65,5.99,6,4.46,9.74l-16.86,40.97c-1.54,3.72-6.02,5.42-10.01,3.77h0c-4-1.65-5.99-6-4.46-9.74l16.86-40.97Z" style="fill:#333132;"/><path d="M66.23,39.61c-1.54-3.73-6.02-5.42-10.02-3.78h0c-4,1.65-5.99,6-4.45,9.74l16.86,40.97c1.54,3.72,6.02,5.42,10.02,3.77h0c4-1.65,5.99-6,4.46-9.74l-16.86-40.97Z" style="fill:#333132;"/><path d="M58.42,15.8c0,8.72-7.07,15.79-15.79,15.79s-15.79-7.07-15.79-15.79S33.9,0,42.63,0s15.79,7.07,15.79,15.8Z" style="fill:#333132;"/><path d="M24.24,35.4v58.68c-.05.4-.07.79-.07,1.14v66.14c0,4.5,3.92,8.18,8.75,8.18s8.75-3.67,8.75-8.18v-65.18h1.34v65.18c0,4.5,3.92,8.18,8.76,8.18s8.75-3.67,8.75-8.18V35.4H24.24Z" style="fill:#333132;"/></g></svg>